<svg width="100%" viewBox="0 0 639 640" fill="none" xmlns="http://www.w3.org/2000/svg">
<circle cx="340.317" cy="340.557" r="298.5" fill="#BBFFF9"/>
<path d="M289.984 0.356628C225.717 6.22327 167.45 29.29 117.317 68.6233C103.317 79.6899 74.5169 109.29 63.8503 123.557C30.7836 167.823 10.9169 215.29 2.38359 270.223C-0.816412 291.423 -0.816412 336.757 2.51692 358.89C12.7836 428.623 45.0503 491.423 95.4503 540.223C142.65 585.69 198.117 613.69 263.984 625.023C284.784 628.623 322.517 629.823 343.984 627.69C404.784 621.423 463.45 597.823 509.984 560.623C576.25 507.557 618.784 429.423 627.45 344.223C630.784 311.557 627.317 268.223 618.784 235.557C587.05 113.29 483.85 20.89 359.317 2.88995C344.65 0.756653 302.517 -0.710022 289.984 0.356628ZM344.784 25.0233C410.517 31.6899 471.85 61.1566 519.45 108.757C544.784 134.223 560.117 155.557 575.317 186.89C595.584 228.223 604.65 267.957 604.65 314.223C604.65 360.357 595.184 401.423 575.317 441.957C510.517 574.09 359.45 636.623 219.317 589.423C201.45 583.423 171.45 568.757 155.984 558.623C80.7836 509.023 33.5836 431.69 24.5169 342.89C22.3836 321.557 23.5836 286.357 27.1836 265.557C49.9836 135.023 154.65 38.09 287.317 24.4899C298.117 23.4233 331.984 23.6899 344.784 25.0233Z" fill="#0A01E6"/>
<path d="M223.05 170.223C212.917 175.69 205.85 189.423 207.984 199.823C209.584 207.69 215.05 215.29 221.717 219.157L227.984 222.89L286.65 223.557C351.717 224.357 349.45 223.957 357.717 233.423C367.45 244.49 366.65 260.223 355.85 271.157C349.717 277.29 343.584 279.557 333.184 279.557C329.45 279.557 321.717 280.757 315.984 282.223C283.584 290.49 260.784 318.09 256.784 353.423C255.317 366.49 256.784 372.223 262.384 375.557C265.984 377.823 269.184 378.223 283.717 378.223C307.05 378.223 309.85 376.623 311.984 360.89C313.317 351.157 315.05 346.89 319.717 342.49C325.184 337.29 329.717 335.557 338.384 335.557C349.184 335.557 362.65 332.09 373.85 326.623C387.317 319.957 404.784 302.89 410.784 290.223C419.45 272.49 422.117 255.823 419.45 238.357C415.317 211.557 397.984 188.357 373.05 175.69C357.45 167.957 354.117 167.557 287.984 167.69C231.317 167.69 227.717 167.823 223.05 170.223Z" fill="#0A01E6"/>
<path d="M273.984 396.223C254.517 402.223 245.05 425.69 254.784 443.69C265.317 462.89 290.917 467.157 307.05 452.357C308.784 450.89 311.85 446.49 313.717 442.89C323.05 424.757 313.184 402.09 293.45 396.223C285.45 393.823 281.85 393.823 273.984 396.223Z" fill="#0A01E6"/>
</svg>
